<svg width="371" height="65" viewBox="0 0 371 65" fill="none" xmlns="http://www.w3.org/2000/svg">
<path d="M155.883 21.7048C156.004 22.5751 156.241 23.2257 156.594 23.6566C157.24 24.4407 158.348 24.8328 159.916 24.8328C160.855 24.8328 161.618 24.7294 162.204 24.5226C163.315 24.1262 163.871 23.3894 163.871 22.3123C163.871 21.6833 163.595 21.1964 163.044 20.8517C162.492 20.5156 161.626 20.2184 160.446 19.9598L158.43 19.5074C156.448 19.0594 155.077 18.5725 154.319 18.0469C153.035 17.1679 152.393 15.7935 152.393 13.9236C152.393 12.2174 153.014 10.7999 154.255 9.67108C155.495 8.54225 157.318 7.97783 159.722 7.97783C161.73 7.97783 163.44 8.51209 164.854 9.5806C166.275 10.6405 167.021 12.183 167.09 14.208H163.264C163.195 13.0619 162.695 12.2476 161.764 11.765C161.144 11.4462 160.373 11.2868 159.451 11.2868C158.425 11.2868 157.607 11.4936 156.995 11.9072C156.383 12.3208 156.077 12.8982 156.077 13.6392C156.077 14.32 156.379 14.8284 156.982 15.1645C157.37 15.3885 158.197 15.6513 159.464 15.9529L162.747 16.7414C164.186 17.0861 165.271 17.5471 166.004 18.1244C167.141 19.0206 167.71 20.3175 167.71 22.015C167.71 23.7557 167.042 25.2033 165.707 26.358C164.38 27.5041 162.501 28.0771 160.071 28.0771C157.589 28.0771 155.638 27.5127 154.216 26.3839C152.794 25.2464 152.083 23.6867 152.083 21.7048H155.883ZM178.774 18.551C178.705 18.0253 178.529 17.5514 178.244 17.1291C177.831 16.5604 177.189 16.2761 176.319 16.2761C175.078 16.2761 174.229 16.8922 173.772 18.1244C173.531 18.7793 173.41 19.6496 173.41 20.7354C173.41 21.7694 173.531 22.601 173.772 23.23C174.212 24.4019 175.039 24.9879 176.254 24.9879C177.116 24.9879 177.727 24.7552 178.089 24.2899C178.451 23.8246 178.671 23.2214 178.749 22.4803H182.51C182.424 23.6006 182.019 24.6604 181.295 25.66C180.14 27.2714 178.43 28.0771 176.163 28.0771C173.897 28.0771 172.23 27.405 171.161 26.0607C170.093 24.7165 169.558 22.9715 169.558 20.8259C169.558 18.4045 170.149 16.5216 171.329 15.1774C172.51 13.8331 174.138 13.161 176.215 13.161C177.982 13.161 179.425 13.5574 180.545 14.3501C181.674 15.1429 182.342 16.5432 182.549 18.551H178.774ZM192.863 13.1351C193.734 13.1351 194.522 13.2859 195.229 13.5875C195.944 13.8891 196.53 14.3501 196.987 14.9706C197.374 15.4962 197.611 16.0391 197.697 16.5992C197.784 17.1507 197.827 18.0555 197.827 19.3136V27.5859H194.065V19.0163C194.065 18.258 193.936 17.6462 193.678 17.1808C193.342 16.5259 192.704 16.1985 191.765 16.1985C190.791 16.1985 190.05 16.5259 189.541 17.1808C189.042 17.8271 188.792 18.7535 188.792 19.9598V27.5859H185.121V8.59826H188.792V15.3325C189.326 14.5139 189.942 13.9451 190.64 13.6263C191.347 13.2989 192.088 13.1351 192.863 13.1351ZM207.598 24.9879C208.676 24.9879 209.503 24.6044 210.08 23.8375C210.657 23.0706 210.946 21.9805 210.946 20.5673C210.946 19.1542 210.657 18.0684 210.08 17.3101C209.503 16.5432 208.676 16.1597 207.598 16.1597C206.521 16.1597 205.69 16.5432 205.104 17.3101C204.526 18.0684 204.238 19.1542 204.238 20.5673C204.238 21.9805 204.526 23.0706 205.104 23.8375C205.69 24.6044 206.521 24.9879 207.598 24.9879ZM214.811 20.5673C214.811 22.6354 214.216 24.4062 213.027 25.8798C211.838 27.3447 210.033 28.0771 207.611 28.0771C205.19 28.0771 203.385 27.3447 202.196 25.8798C201.006 24.4062 200.412 22.6354 200.412 20.5673C200.412 18.5337 201.006 16.7715 202.196 15.2808C203.385 13.79 205.19 13.0447 207.611 13.0447C210.033 13.0447 211.838 13.79 213.027 15.2808C214.216 16.7715 214.811 18.5337 214.811 20.5673ZM223.781 24.9879C224.858 24.9879 225.686 24.6044 226.263 23.8375C226.84 23.0706 227.129 21.9805 227.129 20.5673C227.129 19.1542 226.84 18.0684 226.263 17.3101C225.686 16.5432 224.858 16.1597 223.781 16.1597C222.704 16.1597 221.873 16.5432 221.287 17.3101C220.709 18.0684 220.421 19.1542 220.421 20.5673C220.421 21.9805 220.709 23.0706 221.287 23.8375C221.873 24.6044 222.704 24.9879 223.781 24.9879ZM230.994 20.5673C230.994 22.6354 230.399 24.4062 229.21 25.8798C228.021 27.3447 226.216 28.0771 223.794 28.0771C221.373 28.0771 219.568 27.3447 218.378 25.8798C217.189 24.4062 216.595 22.6354 216.595 20.5673C216.595 18.5337 217.189 16.7715 218.378 15.2808C219.568 13.79 221.373 13.0447 223.794 13.0447C226.216 13.0447 228.021 13.79 229.21 15.2808C230.399 16.7715 230.994 18.5337 230.994 20.5673ZM237.405 27.5859H233.721V8.53363H237.405V27.5859ZM254.699 24.9879C255.776 24.9879 256.604 24.6044 257.181 23.8375C257.758 23.0706 258.047 21.9805 258.047 20.5673C258.047 19.1542 257.758 18.0684 257.181 17.3101C256.604 16.5432 255.776 16.1597 254.699 16.1597C253.622 16.1597 252.791 16.5432 252.205 17.3101C251.627 18.0684 251.339 19.1542 251.339 20.5673C251.339 21.9805 251.627 23.0706 252.205 23.8375C252.791 24.6044 253.622 24.9879 254.699 24.9879ZM261.912 20.5673C261.912 22.6354 261.317 24.4062 260.128 25.8798C258.939 27.3447 257.134 28.0771 254.712 28.0771C252.291 28.0771 250.485 27.3447 249.296 25.8798C248.107 24.4062 247.513 22.6354 247.513 20.5673C247.513 18.5337 248.107 16.7715 249.296 15.2808C250.485 13.79 252.291 13.0447 254.712 13.0447C257.134 13.0447 258.939 13.79 260.128 15.2808C261.317 16.7715 261.912 18.5337 261.912 20.5673ZM269.758 8.33975C269.99 8.33975 270.201 8.34836 270.391 8.3656C270.58 8.37422 270.839 8.39145 271.166 8.4173V11.416C270.96 11.3902 270.611 11.373 270.119 11.3643C269.637 11.3471 269.301 11.4548 269.111 11.6875C268.93 11.9115 268.84 12.1614 268.84 12.4372C268.84 12.7129 268.84 13.1093 268.84 13.6263H271.257V16.2244H268.84V27.5859H265.169V16.2244H263.114V13.6263H265.13V12.7215C265.13 11.2135 265.384 10.1752 265.893 9.60645C266.427 8.76198 267.715 8.33975 269.758 8.33975Z" fill="#153D6F"/>
<path d="M165.81 42.831C165.508 41.5298 164.772 40.6207 163.6 40.1037C162.945 39.8193 162.217 39.6771 161.415 39.6771C159.881 39.6771 158.619 40.2588 157.628 41.4221C156.646 42.5768 156.155 44.3174 156.155 46.644C156.155 48.9878 156.689 50.6466 157.757 51.6204C158.826 52.5941 160.041 53.0809 161.402 53.0809C162.738 53.0809 163.832 52.6975 164.685 51.9306C165.539 51.155 166.064 50.1425 166.262 48.8931H161.855V45.7134H169.791V55.9375H167.154L166.754 53.5592C165.987 54.464 165.297 55.1016 164.685 55.4722C163.634 56.1185 162.342 56.4416 160.808 56.4416C158.283 56.4416 156.215 55.567 154.604 53.8177C152.923 52.0598 152.083 49.6557 152.083 46.6052C152.083 43.5203 152.932 41.0472 154.629 39.1859C156.327 37.3247 158.572 36.394 161.364 36.394C163.785 36.394 165.728 37.0101 167.193 38.2424C168.667 39.466 169.511 40.9955 169.726 42.831H165.81ZM180.959 41.5126C181.028 41.5126 181.084 41.5169 181.127 41.5255C181.179 41.5255 181.286 41.5298 181.45 41.5384V45.3127C181.217 45.2868 181.01 45.2696 180.83 45.261C180.649 45.2524 180.502 45.248 180.39 45.248C178.908 45.248 177.913 45.7306 177.404 46.6957C177.12 47.2386 176.978 48.0744 176.978 49.2033V55.9375H173.268V41.8486H176.784V44.3045C177.353 43.3652 177.848 42.7232 178.27 42.3786C178.96 41.8012 179.856 41.5126 180.959 41.5126ZM191.39 49.0869C191.157 49.2334 190.92 49.3541 190.679 49.4489C190.446 49.535 190.123 49.6169 189.709 49.6944L188.882 49.8496C188.107 49.9874 187.551 50.1555 187.215 50.3536C186.646 50.6897 186.362 51.211 186.362 51.9176C186.362 52.5467 186.534 53.0034 186.879 53.2878C187.232 53.5635 187.659 53.7014 188.158 53.7014C188.951 53.7014 189.679 53.4687 190.343 53.0034C191.015 52.5381 191.364 51.6893 191.39 50.4571V49.0869ZM189.154 47.3678C189.834 47.2817 190.321 47.174 190.614 47.0447C191.14 46.8207 191.403 46.4717 191.403 45.9977C191.403 45.4204 191.2 45.024 190.795 44.8086C190.399 44.5845 189.813 44.4725 189.037 44.4725C188.167 44.4725 187.551 44.6879 187.189 45.1188C186.93 45.4376 186.758 45.8685 186.672 46.4113H183.117C183.195 45.1791 183.54 44.1666 184.151 43.3738C185.125 42.133 186.797 41.5126 189.167 41.5126C190.709 41.5126 192.079 41.8185 193.277 42.4303C194.475 43.0421 195.074 44.1968 195.074 45.8943V52.3571C195.074 52.8052 195.082 53.3481 195.099 53.9857C195.125 54.4683 195.198 54.7957 195.319 54.9681C195.44 55.1404 195.621 55.2826 195.862 55.3946V55.9375H191.855C191.743 55.6531 191.665 55.386 191.622 55.1361C191.579 54.8862 191.545 54.6019 191.519 54.283C191.011 54.8345 190.425 55.3041 189.761 55.6919C188.968 56.1486 188.072 56.377 187.073 56.377C185.797 56.377 184.742 56.0151 183.906 55.2912C183.079 54.5588 182.665 53.5247 182.665 52.1891C182.665 50.4571 183.333 49.2033 184.668 48.4277C185.401 48.0055 186.478 47.7039 187.9 47.5229L189.154 47.3678ZM203.553 41.5126C204.406 41.5126 205.164 41.7021 205.828 42.0813C206.491 42.4518 207.03 42.9688 207.443 43.6323V36.911H211.179V55.9375H207.598V53.9857C207.073 54.8216 206.474 55.4291 205.802 55.8082C205.13 56.1874 204.294 56.377 203.294 56.377C201.648 56.377 200.261 55.7135 199.132 54.3864C198.012 53.0508 197.452 51.3403 197.452 49.255C197.452 46.8508 198.003 44.9594 199.106 43.5806C200.218 42.2019 201.7 41.5126 203.553 41.5126ZM204.354 53.2748C205.397 53.2748 206.19 52.8871 206.732 52.1115C207.275 51.336 207.547 50.3321 207.547 49.0999C207.547 47.3765 207.112 46.1442 206.241 45.4032C205.707 44.9551 205.087 44.731 204.38 44.731C203.303 44.731 202.51 45.1403 202.002 45.959C201.502 46.769 201.252 47.7771 201.252 48.9835C201.252 50.2847 201.506 51.3274 202.015 52.1115C202.532 52.8871 203.311 53.2748 204.354 53.2748ZM218.21 41.8486V50.3407C218.21 51.1421 218.305 51.7453 218.495 52.1503C218.831 52.8655 219.49 53.2231 220.472 53.2231C221.73 53.2231 222.592 52.7147 223.057 51.6979C223.299 51.1464 223.419 50.4183 223.419 49.5135V41.8486H227.155V55.9375H223.574V53.947C223.54 53.99 223.454 54.1193 223.316 54.3347C223.178 54.5502 223.014 54.7397 222.825 54.9035C222.247 55.4205 221.687 55.7738 221.144 55.9634C220.61 56.1529 219.981 56.2477 219.257 56.2477C217.172 56.2477 215.767 55.498 215.044 53.9987C214.639 53.1714 214.436 51.9521 214.436 50.3407V41.8486H218.21ZM238.491 49.0869C238.258 49.2334 238.021 49.3541 237.78 49.4489C237.547 49.535 237.224 49.6169 236.81 49.6944L235.983 49.8496C235.207 49.9874 234.652 50.1555 234.316 50.3536C233.747 50.6897 233.463 51.211 233.463 51.9176C233.463 52.5467 233.635 53.0034 233.98 53.2878C234.333 53.5635 234.759 53.7014 235.259 53.7014C236.052 53.7014 236.78 53.4687 237.444 53.0034C238.116 52.5381 238.465 51.6893 238.491 50.4571V49.0869ZM236.254 47.3678C236.935 47.2817 237.422 47.174 237.715 47.0447C238.241 46.8207 238.503 46.4717 238.503 45.9977C238.503 45.4204 238.301 45.024 237.896 44.8086C237.5 44.5845 236.914 44.4725 236.138 44.4725C235.268 44.4725 234.652 44.6879 234.29 45.1188C234.031 45.4376 233.859 45.8685 233.773 46.4113H230.218C230.296 45.1791 230.64 44.1666 231.252 43.3738C232.226 42.133 233.898 41.5126 236.267 41.5126C237.81 41.5126 239.18 41.8185 240.378 42.4303C241.575 43.0421 242.174 44.1968 242.174 45.8943V52.3571C242.174 52.8052 242.183 53.3481 242.2 53.9857C242.226 54.4683 242.299 54.7957 242.42 54.9681C242.541 55.1404 242.722 55.2826 242.963 55.3946V55.9375H238.956C238.844 55.6531 238.766 55.386 238.723 55.1361C238.68 54.8862 238.646 54.6019 238.62 54.283C238.111 54.8345 237.525 55.3041 236.862 55.6919C236.069 56.1486 235.173 56.377 234.173 56.377C232.898 56.377 231.843 56.0151 231.007 55.2912C230.179 54.5588 229.766 53.5247 229.766 52.1891C229.766 50.4571 230.434 49.2033 231.769 48.4277C232.502 48.0055 233.579 47.7039 235.001 47.5229L236.254 47.3678ZM244.01 44.6018V41.9779H245.974V38.0485H249.619V41.9779H251.907V44.6018H249.619V52.0469C249.619 52.6242 249.693 52.9862 249.839 53.1326C249.986 53.2705 250.434 53.3395 251.183 53.3395C251.295 53.3395 251.412 53.3395 251.532 53.3395C251.662 53.3308 251.787 53.3222 251.907 53.3136V56.0668L250.162 56.1314C248.422 56.1917 247.233 55.8901 246.595 55.2266C246.181 54.8044 245.974 54.1538 245.974 53.2748V44.6018H244.01ZM259.831 44.5113C258.978 44.5113 258.314 44.7784 257.84 45.3127C257.375 45.8469 257.082 46.5708 256.961 47.4842H262.687C262.627 46.5104 262.33 45.7737 261.795 45.2739C261.27 44.7655 260.615 44.5113 259.831 44.5113ZM259.831 41.4738C261.003 41.4738 262.058 41.6935 262.997 42.133C263.937 42.5724 264.712 43.2661 265.324 44.214C265.876 45.0499 266.233 46.0193 266.397 47.1223C266.492 47.7685 266.53 48.6992 266.513 49.9142H256.871C256.922 51.3274 257.366 52.3183 258.202 52.8871C258.71 53.2404 259.322 53.417 260.038 53.417C260.796 53.417 261.412 53.2016 261.886 52.7707C262.144 52.5381 262.373 52.2149 262.571 51.8013H266.332C266.237 52.6372 265.802 53.4859 265.027 54.3477C263.82 55.7178 262.131 56.4028 259.96 56.4028C258.168 56.4028 256.586 55.8255 255.216 54.6708C253.846 53.5161 253.161 51.6376 253.161 49.0352C253.161 46.5966 253.777 44.7267 255.009 43.4255C256.25 42.1244 257.857 41.4738 259.831 41.4738ZM279.555 50.0564C279.676 50.9267 279.913 51.5773 280.266 52.0081C280.912 52.7923 282.02 53.1844 283.588 53.1844C284.527 53.1844 285.29 53.0809 285.876 52.8741C286.987 52.4778 287.543 51.741 287.543 50.6639C287.543 50.0348 287.267 49.548 286.716 49.2033C286.164 48.8672 285.298 48.5699 284.118 48.3114L282.101 47.859C280.12 47.4109 278.749 46.9241 277.991 46.3984C276.707 45.5195 276.065 44.1451 276.065 42.2752C276.065 40.569 276.686 39.1515 277.927 38.0226C279.167 36.8938 280.99 36.3294 283.394 36.3294C285.402 36.3294 287.112 36.8637 288.525 37.9322C289.947 38.9921 290.693 40.5345 290.762 42.5595H286.936C286.867 41.4135 286.367 40.5991 285.436 40.1166C284.816 39.7978 284.045 39.6383 283.123 39.6383C282.097 39.6383 281.279 39.8452 280.667 40.2588C280.055 40.6724 279.749 41.2497 279.749 41.9908C279.749 42.6715 280.051 43.18 280.654 43.516C281.042 43.7401 281.869 44.0029 283.136 44.3045L286.419 45.0929C287.858 45.4376 288.943 45.8986 289.676 46.476C290.813 47.3721 291.382 48.669 291.382 50.3666C291.382 52.1072 290.714 53.5549 289.379 54.7096C288.052 55.8556 286.173 56.4287 283.743 56.4287C281.261 56.4287 279.31 55.8643 277.888 54.7354C276.466 53.598 275.755 52.0383 275.755 50.0564H279.555ZM292.584 44.6018V41.9779H294.549V38.0485H298.194V41.9779H300.482V44.6018H298.194V52.0469C298.194 52.6242 298.267 52.9862 298.414 53.1326C298.56 53.2705 299.008 53.3395 299.758 53.3395C299.87 53.3395 299.986 53.3395 300.107 53.3395C300.236 53.3308 300.361 53.3222 300.482 53.3136V56.0668L298.737 56.1314C296.996 56.1917 295.807 55.8901 295.169 55.2266C294.756 54.8044 294.549 54.1538 294.549 53.2748V44.6018H292.584ZM306.518 41.8486V50.3407C306.518 51.1421 306.613 51.7453 306.802 52.1503C307.138 52.8655 307.798 53.2231 308.78 53.2231C310.038 53.2231 310.9 52.7147 311.365 51.6979C311.606 51.1464 311.727 50.4183 311.727 49.5135V41.8486H315.462V55.9375H311.882V53.947C311.848 53.99 311.761 54.1193 311.624 54.3347C311.486 54.5502 311.322 54.7397 311.132 54.9035C310.555 55.4205 309.995 55.7738 309.452 55.9634C308.918 56.1529 308.289 56.2477 307.565 56.2477C305.48 56.2477 304.075 55.498 303.351 53.9987C302.946 53.1714 302.744 51.9521 302.744 50.3407V41.8486H306.518ZM324.226 41.5126C325.079 41.5126 325.837 41.7021 326.501 42.0813C327.164 42.4518 327.703 42.9688 328.117 43.6323V36.911H331.852V55.9375H328.272V53.9857C327.746 54.8216 327.147 55.4291 326.475 55.8082C325.803 56.1874 324.967 56.377 323.967 56.377C322.322 56.377 320.934 55.7135 319.805 54.3864C318.685 53.0508 318.125 51.3403 318.125 49.255C318.125 46.8508 318.677 44.9594 319.78 43.5806C320.891 42.2019 322.373 41.5126 324.226 41.5126ZM325.027 53.2748C326.07 53.2748 326.863 52.8871 327.406 52.1115C327.948 51.336 328.22 50.3321 328.22 49.0999C328.22 47.3765 327.785 46.1442 326.914 45.4032C326.38 44.9551 325.76 44.731 325.053 44.731C323.976 44.731 323.183 45.1403 322.675 45.959C322.175 46.769 321.925 47.7771 321.925 48.9835C321.925 50.2847 322.179 51.3274 322.688 52.1115C323.205 52.8871 323.985 53.2748 325.027 53.2748ZM339 40.1683H335.264V36.7689H339V40.1683ZM335.264 41.8486H339V55.9375H335.264V41.8486ZM348.138 44.5113C347.285 44.5113 346.622 44.7784 346.148 45.3127C345.682 45.8469 345.389 46.5708 345.269 47.4842H350.995C350.934 46.5104 350.637 45.7737 350.103 45.2739C349.577 44.7655 348.922 44.5113 348.138 44.5113ZM348.138 41.4738C349.31 41.4738 350.366 41.6935 351.305 42.133C352.244 42.5724 353.02 43.2661 353.632 44.214C354.183 45.0499 354.541 46.0193 354.704 47.1223C354.799 47.7685 354.838 48.6992 354.821 49.9142H345.178C345.23 51.3274 345.674 52.3183 346.51 52.8871C347.018 53.2404 347.63 53.417 348.345 53.417C349.103 53.417 349.719 53.2016 350.193 52.7707C350.452 52.5381 350.68 52.2149 350.878 51.8013H354.64C354.545 52.6372 354.11 53.4859 353.334 54.3477C352.128 55.7178 350.439 56.4028 348.268 56.4028C346.475 56.4028 344.894 55.8255 343.524 54.6708C342.154 53.5161 341.469 51.6376 341.469 49.0352C341.469 46.5966 342.085 44.7267 343.317 43.4255C344.558 42.1244 346.165 41.4738 348.138 41.4738ZM360.185 51.4394C360.262 52.0943 360.43 52.5596 360.689 52.8354C361.146 53.3265 361.99 53.5721 363.222 53.5721C363.946 53.5721 364.519 53.4644 364.942 53.249C365.372 53.0336 365.588 52.7104 365.588 52.2796C365.588 51.8659 365.415 51.5514 365.071 51.336C364.726 51.1206 363.446 50.75 361.232 50.2244C359.638 49.828 358.513 49.3325 357.858 48.738C357.203 48.152 356.876 47.3075 356.876 46.2045C356.876 44.9034 357.384 43.7875 358.401 42.8568C359.427 41.9176 360.866 41.4479 362.718 41.4479C364.476 41.4479 365.907 41.8012 367.01 42.5078C368.121 43.2058 368.759 44.4165 368.923 46.1399H365.239C365.187 45.666 365.054 45.2911 364.838 45.0154C364.433 44.5156 363.744 44.2657 362.77 44.2657C361.969 44.2657 361.396 44.3906 361.051 44.6405C360.715 44.8904 360.547 45.1834 360.547 45.5195C360.547 45.9417 360.728 46.2476 361.09 46.4372C361.452 46.6354 362.731 46.9758 364.929 47.4583C366.393 47.803 367.492 48.3243 368.225 49.0223C368.948 49.7289 369.31 50.6122 369.31 51.6721C369.31 53.068 368.789 54.2098 367.746 55.0973C366.712 55.9763 365.11 56.4157 362.938 56.4157C360.723 56.4157 359.086 55.9504 358.026 55.0198C356.975 54.0805 356.449 52.8871 356.449 51.4394H360.185Z" fill="#153D6F"/>
<path d="M4.01562 10.4492L4.0322 33.9015L4.04879 45.437C4.04879 45.437 3.18663 52.4835 10.4404 53.9011C17.6982 55.4679 20.4588 56.044 22.5976 57.2834C25.2918 55.4886 30.0959 54.6223 30.0959 54.6223L35.103 53.8265C35.103 53.8265 41.4946 53.2379 41.0801 46.5023L41.1008 39.6299L41.134 22.4282V10.4492H4.01562Z" fill="#153D6F"/>
<path d="M10.7635 11.3984C10.7635 11.3984 10.4402 12.0326 10.3738 12.1238C10.3738 12.1238 10.5231 12.3932 10.4899 12.4305C10.4567 12.4678 10.2329 12.6336 10.2329 12.6336L10.3158 12.7538C10.3158 12.7538 10.3531 12.8326 10.2951 12.8782C10.2412 12.9238 9.92204 13.3466 9.86816 13.7279C9.79769 14.2295 10.0008 15.4315 10.3117 16.5424C10.4236 16.8532 10.378 17.0563 9.61946 16.8947C8.68684 16.6957 8.00292 15.9082 8.00292 15.9082C8.00292 15.9082 7.75422 16.9278 8.8402 18.3081C9.26299 18.8428 9.54071 18.8967 9.82257 19.0584L9.95935 19.535C9.95935 19.535 9.05989 19.9744 6.84232 18.275C6.72212 19.1205 7.36873 21.2303 9.3832 22.0842C9.549 22.163 9.56558 22.2127 9.57387 22.3163C9.58216 22.42 9.64433 22.8013 9.64433 22.8013C9.64433 22.8013 8.82777 22.992 7.91587 22.449C6.99154 21.8977 6.12109 21.2925 6.12109 21.2925C6.12109 21.2925 6.15425 23.564 7.98634 24.6002H8.64124L8.48373 24.9525L8.93968 24.8406L8.99771 25.3505L9.39563 25.0727C9.39563 25.0727 9.89717 25.7898 9.90546 26.5152C9.91375 27.2406 9.94691 27.8209 9.94691 27.8209L10.0422 28.082H12.1935L12.2349 27.8333C12.2349 27.8333 12.1645 26.8924 12.1935 26.4406C12.2184 26.0095 12.4795 24.8696 12.4795 24.8696C12.4795 24.8696 15.1489 23.9536 15.2276 21.3381C15.2276 21.3381 13.6318 22.6065 11.8868 22.5982L12.0526 22.0966C12.0526 22.0966 12.0691 21.9681 12.3966 21.906C12.7241 21.8438 13.7437 21.3796 14.1831 20.6086C14.6225 19.8418 14.9706 18.9174 15.066 18.1921C15.066 18.1921 13.781 19.5392 11.9904 19.4273V19.0998C11.9904 19.0998 12.8816 18.4615 13.2422 17.7527C13.6028 17.0439 13.5945 16.0698 13.5945 15.9579C13.5945 15.9579 12.637 16.6418 12.0236 16.8035C11.4101 16.9693 11.1697 16.8823 11.1697 16.8823C11.1697 16.8823 11.5344 15.9082 11.6546 15.6553C11.8287 15.2823 12.1313 13.8233 11.5179 13.0813C11.5179 13.0813 11.3894 12.9445 11.2319 12.8906C11.2319 12.8906 11.3023 12.6585 11.2401 12.5715C11.178 12.4844 11.0163 12.3228 11.0163 12.3228L11.0578 11.9166L10.7635 11.3984Z" fill="#B5975D"/>
<path d="M22.7832 11.3984C22.7832 11.3984 22.4599 12.0326 22.3936 12.1238C22.3936 12.1238 22.5428 12.3932 22.5097 12.4305C22.4765 12.4678 22.2527 12.6336 22.2527 12.6336L22.3356 12.7538C22.3356 12.7538 22.3729 12.8326 22.3149 12.8782C22.261 12.9238 21.9418 13.3466 21.8879 13.7279C21.8175 14.2295 22.0206 15.4315 22.3314 16.5424C22.4434 16.8532 22.3978 17.0563 21.6392 16.8947C20.7066 16.6957 20.0227 15.9082 20.0227 15.9082C20.0227 15.9082 19.774 16.9278 20.86 18.3081C21.2828 18.8428 21.5605 18.8967 21.8423 19.0584L21.9791 19.535C21.9791 19.535 21.0797 19.9744 18.8621 18.275C18.7419 19.1205 19.3885 21.2303 21.3988 22.0842C21.5646 22.163 21.5812 22.2127 21.5895 22.3163C21.5978 22.42 21.66 22.8013 21.66 22.8013C21.66 22.8013 20.8392 22.992 19.9315 22.449C19.0072 21.8977 18.1367 21.2925 18.1367 21.2925C18.1367 21.2925 18.1699 23.564 20.002 24.6002H20.6569L20.5035 24.9525L20.9595 24.8406L21.0216 25.3505L21.4195 25.0727C21.4195 25.0727 21.9211 25.7898 21.9294 26.5152C21.9377 27.2406 21.9708 27.8209 21.9708 27.8209L22.0662 28.082H24.2174L24.2589 27.8333C24.2589 27.8333 24.1884 26.8924 24.2174 26.4406C24.2423 26.0095 24.5034 24.8696 24.5034 24.8696C24.5034 24.8696 27.1728 23.9536 27.2474 21.3381C27.2474 21.3381 25.6516 22.6065 23.9065 22.5982L24.0723 22.0966C24.0723 22.0966 24.0889 21.9681 24.4164 21.906C24.7438 21.8438 25.7635 21.3796 26.2029 20.6086C26.6422 19.8418 26.9863 18.9174 27.0816 18.1921C27.0816 18.1921 25.7966 19.5392 24.006 19.4273V19.0998C24.006 19.0998 24.8972 18.4615 25.2578 17.7527C25.6184 17.0439 25.6101 16.0698 25.6101 15.9579C25.6101 15.9579 24.6526 16.6418 24.0392 16.8035C23.4257 16.9693 23.1853 16.8823 23.1853 16.8823C23.1853 16.8823 23.5501 15.9082 23.6703 15.6553C23.8444 15.2823 24.1469 13.8233 23.5335 13.0813C23.5335 13.0813 23.405 12.9445 23.2475 12.8906C23.2475 12.8906 23.3179 12.6585 23.2558 12.5715C23.1936 12.4844 23.0319 12.3228 23.0319 12.3228L23.0734 11.9166L22.7832 11.3984Z" fill="#B5975D"/>
<path d="M34.3904 11.3984C34.3904 11.3984 34.0671 12.0326 34.0008 12.1238C34.0008 12.1238 34.15 12.3932 34.1169 12.4305C34.0837 12.4678 33.8599 12.6336 33.8599 12.6336L33.9428 12.7538C33.9428 12.7538 33.9801 12.8326 33.922 12.8782C33.8682 12.9238 33.549 13.3466 33.4951 13.7279C33.4246 14.2295 33.6278 15.4315 33.9386 16.5424C34.0505 16.8532 34.0049 17.0563 33.2464 16.8947C32.3138 16.6957 31.6299 15.9082 31.6299 15.9082C31.6299 15.9082 31.3812 16.9278 32.4672 18.3081C32.8899 18.8428 33.1677 18.8967 33.4495 19.0584L33.5863 19.535C33.5863 19.535 32.6868 19.9744 30.4693 18.275C30.3491 19.1205 30.9957 21.2303 33.0102 22.0842C33.176 22.163 33.1925 22.2127 33.2008 22.3163C33.2091 22.42 33.2713 22.8013 33.2713 22.8013C33.2713 22.8013 32.4547 22.992 31.5428 22.449C30.6185 21.8977 29.748 21.2925 29.748 21.2925C29.748 21.2925 29.7812 23.564 31.6133 24.6002H32.2682L32.1148 24.9525L32.5708 24.8406L32.633 25.3505L33.0309 25.0727C33.0309 25.0727 33.5324 25.7898 33.5407 26.5152C33.549 27.2406 33.5822 27.8209 33.5822 27.8209L33.6775 28.082H35.8287L35.8702 27.8333C35.8702 27.8333 35.8039 26.8924 35.8287 26.4406C35.8536 26.0095 36.1147 24.8696 36.1147 24.8696C36.1147 24.8696 38.7841 23.9536 38.8587 21.3381C38.8587 21.3381 37.2629 22.6065 35.5179 22.5982L35.6837 22.0966C35.6837 22.0966 35.7002 21.9681 36.0277 21.906C36.3552 21.8438 37.3748 21.3796 37.8142 20.6086C38.2536 19.8418 38.6017 18.9174 38.6929 18.1921C38.6929 18.1921 37.408 19.5392 35.6173 19.4273V19.0998C35.6173 19.0998 36.5044 18.4615 36.8691 17.7527C37.2297 17.0439 37.2215 16.0698 37.2215 15.9579C37.2215 15.9579 36.264 16.6418 35.6505 16.8035C35.037 16.9693 34.7966 16.8823 34.7966 16.8823C34.7966 16.8823 35.1614 15.9082 35.2816 15.6553C35.4557 15.2823 35.7583 13.8233 35.1448 13.0813C35.1448 13.0813 35.0163 12.9445 34.8588 12.8906C34.8588 12.8906 34.9293 12.6585 34.8671 12.5715C34.8049 12.4844 34.6433 12.3228 34.6433 12.3228L34.6889 11.9166L34.3904 11.3984Z" fill="#B5975D"/>
<path d="M41.1308 27.8086H4.0332V28.5671H41.1308V27.8086Z" fill="#B5975D"/>
<path d="M17.8529 34.6807C18.6363 34.4486 19.428 35.1159 19.6062 35.8537C19.8342 36.7822 19.399 37.6692 18.6031 38.1376C17.0363 39.0619 14.8105 38.4277 14.1266 36.7117C13.6084 35.4061 13.911 33.8392 14.8685 32.8196C16.1203 31.4849 18.2218 31.1906 19.8466 31.9657C21.1233 32.5792 22.4455 33.9968 22.5616 35.4724C22.6155 36.148 22.5699 36.8858 22.3792 37.5366C22.0518 38.6599 21.2518 39.5676 20.3731 40.3054C21.0818 40.8857 21.6829 41.6443 22.0932 42.4567C22.9554 44.1478 22.6901 45.9758 21.4881 47.4307C20.1907 49.0057 18.0933 49.6565 16.1866 48.8731C15.5607 48.6161 15.0509 48.2389 14.6364 47.7001C13.596 46.3281 13.5836 44.0939 14.9224 42.9168C16.0374 41.9385 17.7949 41.9303 18.9596 42.8422C19.3865 43.1738 19.6062 43.7831 19.656 44.3053C19.7389 45.1882 18.9265 46.3239 17.9399 46.0877C17.6498 46.0172 17.3928 45.7561 17.5047 45.4411C17.6498 45.0307 18.1099 45.0017 18.371 44.7157C18.7772 44.268 18.3876 43.6629 17.9441 43.4349C17.2312 43.0701 16.1576 43.3313 15.6436 43.9199C15.225 44.4007 15.0633 45.0473 15.1338 45.669C15.2913 47.0908 16.5141 48.156 17.9441 48.1063C19.6684 48.0483 20.9368 46.7302 21.2974 45.1053C21.4134 44.5872 21.4342 44.0483 21.343 43.5219C21.1689 43.0038 20.8414 42.5396 20.4435 42.1665C19.4736 41.2588 18.1638 41.0308 16.883 40.9769C15.5317 40.923 14.1763 41.0557 12.8499 41.3085C12.3691 41.3997 11.8924 41.4992 11.4116 41.6028C11.0593 41.6774 11.0303 41.7147 10.7567 41.5199C10.222 41.1344 9.68314 40.7531 9.14844 40.3676C9.57952 40.065 10.0064 39.7666 10.4334 39.464C10.6199 39.3314 10.8106 39.1987 11.0012 39.0661C11.0759 39.0122 11.2499 39.0951 11.3328 39.1117C12.7836 39.4267 14.226 39.6878 15.7099 39.7459C17.3804 39.8122 19.3244 39.7044 20.5637 38.4236C21.716 37.2257 21.6539 35.5055 20.7461 34.1708C19.9378 32.9895 18.57 32.4134 17.1648 32.7574C15.9628 33.0558 15.1255 34.117 15.1214 35.3563C15.1172 36.7242 16.6301 38.0588 17.9565 37.3169C18.5534 36.9811 18.8104 36.1521 18.1016 35.7998C17.6042 35.5843 17.1151 35.0371 17.8529 34.6807Z" fill="#B5975D"/>
<path d="M27.2616 34.6807C26.4782 34.4486 25.6865 35.1159 25.5083 35.8537C25.2803 36.7822 25.7155 37.6692 26.5114 38.1376C28.0782 39.0619 30.304 38.4277 30.988 36.7117C31.5061 35.4061 31.2035 33.8392 30.246 32.8196C28.9942 31.4849 26.8927 31.1906 25.2679 31.9657C23.9912 32.5792 22.669 33.9968 22.5529 35.4724C22.499 36.148 22.5446 36.8858 22.7353 37.5366C23.0628 38.6599 23.8627 39.5676 24.7415 40.3054C24.0327 40.8857 23.4317 41.6443 23.0213 42.4567C22.1592 44.1478 22.4244 45.9758 23.6265 47.4307C24.9239 49.0057 27.0212 49.6565 28.9279 48.8731C29.5538 48.6161 30.0678 48.2389 30.4781 47.7001C31.5185 46.3281 31.531 44.0939 30.1921 42.9168C29.0771 41.9385 27.3197 41.9303 26.1549 42.8422C25.728 43.1738 25.5083 43.7831 25.4586 44.3053C25.3757 45.1882 26.1881 46.3239 27.1787 46.0877C27.4689 46.0172 27.7217 45.7561 27.614 45.4411C27.4689 45.0307 27.0088 45.0017 26.7476 44.7157C26.3414 44.268 26.7311 43.6629 27.1746 43.4349C27.8875 43.0701 28.9652 43.3313 29.475 43.9199C29.8937 44.4007 30.0553 45.0473 29.9849 45.669C29.8315 47.0908 28.6005 48.156 27.1746 48.1063C25.4503 48.0483 24.1819 46.7302 23.8213 45.1053C23.7052 44.5872 23.6845 44.0483 23.7757 43.5219C23.9498 43.0038 24.2772 42.5396 24.6752 42.1665C25.6451 41.2588 26.9549 41.0308 28.2357 40.9769C29.587 40.923 30.9424 41.0557 32.2688 41.3085C32.7496 41.3997 33.2263 41.4992 33.7071 41.6028C34.0594 41.6774 34.0884 41.7147 34.362 41.5199C34.8967 41.1344 35.4355 40.7531 35.9702 40.3676C35.5433 40.065 35.1122 39.7666 34.6853 39.464C34.4988 39.3314 34.3081 39.1987 34.1216 39.0661C34.047 39.0122 33.8729 39.0951 33.79 39.1117C32.3392 39.4267 30.8968 39.6878 29.4129 39.7459C27.7424 39.8122 25.7943 39.7044 24.5591 38.4236C23.4068 37.2257 23.469 35.5055 24.3767 34.1708C25.185 32.9895 26.5528 32.4134 27.958 32.7574C29.16 33.0558 29.9973 34.117 30.0015 35.3563C30.0056 36.7242 28.4927 38.0588 27.1704 37.3169C26.5694 36.9811 26.3166 36.1521 27.0254 35.7998C27.5062 35.5843 27.9953 35.0371 27.2616 34.6807Z" fill="#B5975D"/>
<path d="M23.3106 40.3848C23.3106 40.7786 22.9915 41.0978 22.5977 41.0978C22.2039 41.0978 21.8848 40.7786 21.8848 40.3848C21.8848 39.991 22.2039 39.6719 22.5977 39.6719C22.9915 39.6719 23.3106 39.991 23.3106 40.3848Z" fill="#B5975D"/>
<path d="M1.97578 55.3681C1.82656 55.2935 1.54055 55.194 1.39548 55.3225C1.17165 55.5214 1.52397 55.9359 1.6649 56.0769C1.79754 56.2095 1.9592 56.3339 2.125 56.4168C2.46074 56.5908 4.75706 57.2623 5.83061 56.2012C6.6679 55.1898 4.42132 53.6023 1.8307 53.9049C0.102243 54.2323 0.0276332 55.1318 0.0276332 55.1318C0.0276332 55.1318 -0.0345415 55.5629 0.0276332 55.9359C0.089808 56.309 0.491872 59.5711 0.450422 59.9607C0.450422 59.9607 2.52291 61.7058 6.76323 61.4653C6.7881 59.7908 6.85857 57.8302 6.85857 57.8302C6.85857 57.8302 7.9031 57.1131 10.158 57.3287C11.1611 57.4074 10.9953 56.8893 10.9953 56.8893C10.9953 56.8893 10.9953 56.8105 10.7631 56.7152C10.531 56.6199 9.34141 56.3836 8.03574 56.6903C6.71764 56.9971 5.94667 57.254 5.94667 57.254C5.94667 57.254 5.30005 57.652 4.19334 57.4696C3.08663 57.2872 1.45765 56.968 0.80689 56.0976C0.160273 55.2271 1.52812 54.4976 2.79234 54.622C4.12288 54.7505 4.38816 54.8914 4.67416 55.0987C4.96016 55.3059 5.1757 55.9691 3.70838 55.9028C3.1571 55.8779 2.76747 55.7992 2.15401 55.4758C2.09598 55.4344 2.03795 55.4012 1.97578 55.3681Z" fill="#B5975D"/>
<path d="M43.2172 55.3681C43.3664 55.2935 43.6566 55.194 43.7975 55.3225C44.0213 55.5214 43.669 55.9359 43.5281 56.0769C43.3955 56.2095 43.2379 56.3339 43.068 56.4168C42.7323 56.5908 40.4359 57.2623 39.3624 56.2012C38.5251 55.1898 40.7717 53.6023 43.3623 53.9049C45.0908 54.2323 45.1654 55.1318 45.1654 55.1318C45.1654 55.1318 45.2275 55.5629 45.1654 55.9359C45.1032 56.309 44.7011 59.5711 44.7426 59.9607C44.7426 59.9607 42.6701 61.7058 38.4298 61.4653C38.4049 59.7908 38.3344 57.8302 38.3344 57.8302C38.3344 57.8302 37.2899 57.1131 35.035 57.3287C34.0319 57.4074 34.1977 56.8893 34.1977 56.8893C34.1977 56.8893 34.1977 56.8105 34.4299 56.7152C34.662 56.6199 35.8516 56.3836 37.1573 56.6903C38.4754 56.9971 39.2463 57.254 39.2463 57.254C39.2463 57.254 39.8929 57.652 40.9997 57.4696C42.1064 57.2872 43.7353 56.968 44.3861 56.0976C45.0327 55.2271 43.6649 54.4976 42.4007 54.622C41.0701 54.7505 40.8048 54.8914 40.5188 55.0987C40.2328 55.3059 40.0173 55.9691 41.4846 55.9028C42.0359 55.8779 42.4255 55.7992 43.039 55.4758C43.1012 55.4344 43.1592 55.4012 43.2172 55.3681Z" fill="#B5975D"/>
<path d="M33.9625 57.6697C33.9625 57.6697 36.4661 57.4459 37.8505 58.1008V62.5359C37.8505 62.5359 30.3398 64.5587 24.7234 64.5587C23.3763 64.5918 18.8665 64.5918 16.8313 64.3183C14.792 64.0405 9.90505 63.5058 7.33101 62.6271V58.6562C7.33101 58.6562 7.24397 57.9143 8.7486 57.8106C10.2491 57.707 11.4926 57.8106 11.4926 57.8106L11.5257 59.3277C11.5257 59.3277 18.796 60.5546 24.4083 60.2935C30.0207 60.0323 32.5118 59.7422 33.805 59.3774C33.8755 59.1039 33.9625 57.6697 33.9625 57.6697Z" fill="#B5975D"/>
<path d="M34.3936 58.1137L34.2734 59.0132C34.2734 59.0132 36.4496 59.1334 37.1418 58.4453C37.1418 58.4412 35.948 58.0101 34.3936 58.1137Z" fill="white"/>
<path d="M10.9837 58.376L10.9961 59.2838C10.9961 59.2838 8.82001 59.147 8.21484 58.3802C8.21899 58.3802 9.45419 58.09 10.9837 58.376Z" fill="white"/>
<path d="M9.00961 62.1528L8.70703 62.0823L9.17956 60.043L9.48214 60.1134L9.00961 62.1528Z" fill="#153D6F"/>
<path d="M10.9326 62.5416L10.6383 62.4836L10.0166 60.838L9.73056 62.3053L9.42383 62.2473L9.82589 60.1914L10.1409 60.2536L10.7544 61.8535L11.0321 60.4277L11.3388 60.4857L10.9326 62.5416Z" fill="#153D6F"/>
<path d="M12.0398 62.7247L11.7331 62.6749L12.0149 60.9257L11.4844 60.8387L11.5341 60.5195L12.902 60.7392L12.8522 61.0584L12.3217 60.9713L12.0398 62.7247Z" fill="#153D6F"/>
<path d="M14.0245 63.012L12.8184 62.8462L13.1002 60.7695L14.3023 60.9312L14.2567 61.2504L13.3614 61.1301L13.2867 61.669L14.1655 61.7892L14.1199 62.1084L13.2411 61.9882L13.1624 62.5643L14.0577 62.6845L14.0245 63.012Z" fill="#153D6F"/>
<path d="M15.1688 63.1798C14.9077 63.1508 14.7004 63.0265 14.5429 62.8068C14.3854 62.5871 14.3274 62.3177 14.3606 61.9985C14.3979 61.6793 14.5139 61.4265 14.7129 61.2483C14.9118 61.07 15.144 60.9954 15.4051 61.0203C15.7077 61.0534 15.9274 61.2234 16.0683 61.5301L15.7947 61.671C15.7533 61.584 15.6952 61.5094 15.6206 61.4514C15.546 61.3892 15.4631 61.356 15.3678 61.3436C15.1937 61.3229 15.0403 61.3809 14.9077 61.5094C14.7751 61.6379 14.7004 61.812 14.6756 62.0317C14.6507 62.2513 14.688 62.4379 14.7875 62.5912C14.887 62.7446 15.0238 62.8316 15.1978 62.8524C15.2807 62.8607 15.3636 62.8524 15.4424 62.8233C15.5212 62.7943 15.5875 62.757 15.6372 62.7114L15.6745 62.3881L15.1481 62.3301L15.1854 62.0068L16.0186 62.098L15.9315 62.8772C15.7201 63.1135 15.4631 63.213 15.1688 63.1798Z" fill="#153D6F"/>
<path d="M17.5768 63.3611L17.2204 63.3321L16.8929 62.5197L16.5862 62.4948L16.5199 63.2741L16.209 63.2492L16.3831 61.1602L17.1582 61.2265C17.3323 61.2389 17.4649 61.3135 17.5602 61.442C17.6556 61.5705 17.697 61.7322 17.6805 61.927C17.6639 62.1011 17.6141 62.2379 17.5229 62.3373C17.4318 62.4368 17.3281 62.4907 17.2121 62.5031L17.5768 63.3611ZM17.038 62.2047C17.125 62.213 17.1996 62.1881 17.2618 62.1301C17.324 62.0762 17.3571 61.9974 17.3654 61.898C17.3737 61.7985 17.353 61.7156 17.2991 61.6493C17.2494 61.5829 17.1789 61.5456 17.0877 61.5415L16.6649 61.5042L16.611 62.1674L17.038 62.2047Z" fill="#153D6F"/>
<path d="M18.1742 63.3989L17.8633 63.3781L18.0001 61.2891L18.3109 61.3098L18.1742 63.3989Z" fill="#153D6F"/>
<path d="M19.5394 63.4767L19.2285 63.4643L19.3114 61.3711L20.0907 61.4043C20.2689 61.4125 20.4098 61.4789 20.5052 61.6115C20.6047 61.74 20.6502 61.8975 20.642 62.084C20.6337 62.2664 20.5756 62.4198 20.4679 62.5441C20.3601 62.6685 20.215 62.7224 20.0368 62.7182L19.5684 62.6975L19.5394 63.4767ZM20.0078 62.3866C20.0948 62.3908 20.1694 62.3617 20.2275 62.3037C20.2855 62.2457 20.3186 62.1669 20.3228 62.0675C20.3269 61.968 20.3021 61.8851 20.2482 61.8229C20.1943 61.7607 20.1238 61.7276 20.0326 61.7234L19.6057 61.7068L19.5808 62.37L20.0078 62.3866Z" fill="#153D6F"/>
<path d="M22.2001 63.5436L21.8395 63.5353L21.4582 62.7478L21.1514 62.7437L21.139 63.5271L20.8281 63.5229L20.8654 61.4297L21.6447 61.4421C21.8188 61.4463 21.9556 61.5084 22.0633 61.6328C22.167 61.7571 22.2167 61.9147 22.2167 62.1095C22.2125 62.2836 22.1711 62.4245 22.0882 62.5281C22.0053 62.6317 21.9058 62.6939 21.7856 62.7146L22.2001 63.5436ZM21.5867 62.4286C21.6737 62.4286 21.7483 62.3996 21.8063 62.3416C21.8644 62.2836 21.8934 62.2007 21.8975 62.1012C21.8975 62.0017 21.8727 61.9188 21.8146 61.8566C21.7566 61.7945 21.6861 61.7654 21.5991 61.7613L21.1722 61.753L21.1597 62.4203L21.5867 62.4286Z" fill="#153D6F"/>
<path d="M23.9556 63.267C23.7857 63.4742 23.5701 63.5779 23.3049 63.5779C23.0396 63.582 22.824 63.4784 22.65 63.2794C22.4759 63.0763 22.3888 62.8193 22.3888 62.5043C22.3847 62.1893 22.4676 61.9323 22.6375 61.7251C22.8075 61.5178 23.023 61.4142 23.2883 61.4142C23.5536 61.41 23.7691 61.5137 23.9432 61.7126C24.1173 61.9157 24.2043 62.1727 24.2043 62.4877C24.2085 62.7986 24.1256 63.0597 23.9556 63.267ZM23.3049 63.2504C23.479 63.2504 23.6199 63.1758 23.7276 63.0307C23.8354 62.8856 23.8852 62.7074 23.8852 62.4877C23.881 62.268 23.8271 62.0857 23.7194 61.9447C23.6116 61.8038 23.4665 61.7333 23.2924 61.7333C23.1142 61.7333 22.9733 61.808 22.8655 61.9489C22.7577 62.094 22.708 62.2722 22.708 62.4919C22.7121 62.7116 22.766 62.8939 22.8738 63.0349C22.9816 63.1841 23.1266 63.2504 23.3049 63.2504Z" fill="#153D6F"/>
<path d="M25.3579 63.5277C25.0926 63.536 24.8688 63.4448 24.6823 63.25C24.4999 63.0552 24.4004 62.7982 24.388 62.479C24.3756 62.1598 24.4543 61.8987 24.6243 61.6914C24.7942 61.4842 25.0097 61.3723 25.2792 61.364C25.5859 61.3516 25.8304 61.5008 26.0087 61.8075L25.7475 61.9775C25.702 61.8904 25.6356 61.8199 25.5527 61.7661C25.4698 61.7122 25.3828 61.6873 25.2916 61.6914C25.1175 61.6997 24.9724 61.7744 24.8605 61.9194C24.7486 62.0645 24.6989 62.2469 24.7072 62.4707C24.7154 62.6904 24.7818 62.8686 24.902 63.0054C25.0222 63.1422 25.1714 63.2085 25.3455 63.2044C25.4408 63.2002 25.5237 63.1712 25.6025 63.109C25.6812 63.051 25.7393 62.9722 25.7807 62.8811L26.0501 63.0303C25.8968 63.3536 25.6646 63.5194 25.3579 63.5277Z" fill="#153D6F"/>
<path d="M27.5168 63.3781L26.3023 63.4527L26.1738 61.3637L27.3883 61.2891L27.409 61.6124L26.5054 61.6663L26.5386 62.2092L27.4215 62.1554L27.4422 62.4787L26.5593 62.5326L26.5966 63.1129L27.5002 63.059L27.5168 63.3781Z" fill="#153D6F"/>
<path d="M28.4796 63.3003L27.8247 63.3584L27.6465 61.2735L28.3014 61.2154C28.575 61.1906 28.8071 61.2693 28.9936 61.4475C29.1801 61.6258 29.2879 61.8703 29.3169 62.1812C29.3418 62.4879 29.2796 62.7449 29.1262 62.9522C28.9687 63.1594 28.7532 63.2755 28.4796 63.3003ZM28.4506 62.977C28.6371 62.9605 28.7781 62.8817 28.8775 62.7325C28.977 62.5874 29.0143 62.4092 28.9978 62.2061C28.9812 61.9947 28.9107 61.8289 28.7946 61.7004C28.6744 61.5719 28.5211 61.518 28.3304 61.5346L27.9822 61.5636L28.1066 63.0061L28.4506 62.977Z" fill="#153D6F"/>
<path d="M31.1859 63.0252L30.8336 63.0667L30.6595 62.6812L29.8512 62.7724L29.7683 63.1869L29.416 63.2283L29.8761 61.0688L30.2616 61.0273L31.1859 63.0252ZM30.5352 62.3662L30.1082 61.4087L29.901 62.4366L30.5352 62.3662Z" fill="#153D6F"/>
<path d="M33.1864 62.7402L32.8797 62.7858L32.66 61.248L32.3409 62.8646L32.2082 62.8853L31.4497 61.4221L31.6694 62.9599L31.3627 63.0055L31.0684 60.933L31.5036 60.8708L32.1751 62.1682L32.4611 60.734L32.8963 60.6719L33.1864 62.7402Z" fill="#153D6F"/>
<path d="M34.3052 62.5852C34.0565 62.6308 33.8575 62.5852 33.7 62.4567C33.5466 62.3282 33.443 62.1293 33.3974 61.8681L33.1777 60.6205L33.4886 60.5666L33.7041 61.8018C33.7332 61.9676 33.7953 62.092 33.8907 62.179C33.986 62.2619 34.1062 62.2909 34.2471 62.2661C34.3922 62.2412 34.4917 62.1749 34.5497 62.063C34.6078 61.951 34.6243 61.8143 34.5953 61.6485L34.3798 60.4133L34.6907 60.3594L34.9103 61.607C34.9559 61.8723 34.9269 62.092 34.8274 62.2661C34.728 62.4319 34.5539 62.5438 34.3052 62.5852Z" fill="#153D6F"/>
<path d="M36.0059 62.2601C35.7075 62.3223 35.4505 62.2601 35.2349 62.0777L35.3469 61.7669C35.5334 61.9244 35.7365 61.9824 35.9562 61.9368C36.0722 61.9119 36.1551 61.8664 36.2007 61.8C36.2463 61.7337 36.2629 61.6632 36.2463 61.5845C36.2297 61.5057 36.1841 61.4518 36.1054 61.4187C36.0266 61.3855 35.9354 61.3689 35.8318 61.3607C35.7282 61.3524 35.6204 61.3441 35.5127 61.3275C35.4049 61.3109 35.3096 61.2653 35.2225 61.1907C35.1355 61.1161 35.0774 61.0083 35.0484 60.8716C35.0153 60.6975 35.0443 60.5441 35.1355 60.4073C35.2308 60.2705 35.3717 60.1835 35.5583 60.142C35.8277 60.0882 36.0639 60.1379 36.267 60.2954L36.1468 60.598C35.981 60.4695 35.7987 60.4239 35.5956 60.4653C35.5044 60.4819 35.4381 60.5234 35.3966 60.5773C35.351 60.6353 35.3386 60.7016 35.3552 60.7804C35.3676 60.8301 35.3925 60.8716 35.438 60.8964C35.4836 60.9254 35.5375 60.942 35.5997 60.9503C35.6619 60.9586 35.7323 60.9669 35.8111 60.971C35.8857 60.9752 35.9645 60.9876 36.0432 61.0042C36.122 61.0208 36.1924 61.0415 36.2629 61.0747C36.3292 61.1078 36.3914 61.1534 36.4453 61.2239C36.4992 61.2902 36.5365 61.3772 36.5572 61.485C36.5945 61.6715 36.5696 61.8332 36.4826 61.9741C36.3872 62.1233 36.2297 62.2145 36.0059 62.2601Z" fill="#153D6F"/>
<path d="M55.4502 10.7472H63.2388V33.2918C63.2388 35.8134 63.5374 37.6548 64.1346 38.816C65.0636 40.8731 67.0875 41.9016 70.2062 41.9016C73.3084 41.9016 75.324 40.8731 76.253 38.816C76.8502 37.6548 77.1488 35.8134 77.1488 33.2918V10.7472H84.9374V33.2918C84.9374 37.1903 84.3319 40.2261 83.1209 42.3993C80.8648 46.3807 76.5599 48.3714 70.2062 48.3714C63.8526 48.3714 59.5394 46.3807 57.2667 42.3993C56.0557 40.2261 55.4502 37.1903 55.4502 33.2918V10.7472ZM116.938 22.1937C116.357 19.6888 114.939 17.9386 112.683 16.9433C111.422 16.3958 110.02 16.1221 108.477 16.1221C105.524 16.1221 103.094 17.2419 101.186 19.4814C99.2953 21.7043 98.3497 25.0553 98.3497 29.5344C98.3497 34.0467 99.3782 37.2401 101.435 39.1146C103.492 40.9892 105.831 41.9265 108.452 41.9265C111.024 41.9265 113.131 41.1883 114.773 39.7118C116.415 38.2188 117.427 36.2696 117.809 33.8642H109.323V27.7428H124.602V47.4258H119.526L118.754 42.8472C117.278 44.589 115.951 45.8166 114.773 46.53C112.749 47.7742 110.261 48.3962 107.308 48.3962C102.447 48.3962 98.4658 46.7124 95.3636 43.3449C92.1288 39.9607 90.5113 35.3323 90.5113 29.4598C90.5113 23.5209 92.1454 18.7598 95.4134 15.1765C98.6815 11.5933 103.003 9.80165 108.378 9.80165C113.039 9.80165 116.78 10.9878 119.6 13.36C122.437 15.7157 124.063 18.6602 124.478 22.1937H116.938Z" fill="#153D6F"/>
<path d="M137.633 8.90234V59.4587" stroke="#B5975D" stroke-width="0.828997" stroke-miterlimit="10"/>
</svg>
